<svg width="229" height="73" viewBox="0 0 229 73" fill="none" xmlns="http://www.w3.org/2000/svg">
<path d="M60.28 58.48C56.6 58.48 53.36 57.76 50.56 56.32C47.8 54.88 45.66 52.92 44.14 50.44C42.62 47.92 41.86 45.06 41.86 41.86C41.86 38.62 42.6 35.76 44.08 33.28C45.6 30.76 47.66 28.8 50.26 27.4C52.86 25.96 55.8 25.24 59.08 25.24C62.24 25.24 65.08 25.92 67.6 27.28C70.16 28.6 72.18 30.52 73.66 33.04C75.14 35.52 75.88 38.5 75.88 41.98C75.88 42.34 75.86 42.76 75.82 43.24C75.78 43.68 75.74 44.1 75.7 44.5H49.48V39.04H70.78L67.18 40.66C67.18 38.98 66.84 37.52 66.16 36.28C65.48 35.04 64.54 34.08 63.34 33.4C62.14 32.68 60.74 32.32 59.14 32.32C57.54 32.32 56.12 32.68 54.88 33.4C53.68 34.08 52.74 35.06 52.06 36.34C51.38 37.58 51.04 39.06 51.04 40.78V42.22C51.04 43.98 51.42 45.54 52.18 46.9C52.98 48.22 54.08 49.24 55.48 49.96C56.92 50.64 58.6 50.98 60.52 50.98C62.24 50.98 63.74 50.72 65.02 50.2C66.34 49.68 67.54 48.9 68.62 47.86L73.6 53.26C72.12 54.94 70.26 56.24 68.02 57.16C65.78 58.04 63.2 58.48 60.28 58.48ZM105.915 58L95.1147 42.7L102.735 38.2L116.955 58H105.915ZM83.0547 58V25.72H92.4147V58H83.0547ZM89.6547 45.76V38.26H100.935V45.76H89.6547ZM103.635 42.94L94.8747 41.98L106.215 25.72H116.175L103.635 42.94ZM128.158 58V31.24L130.258 33.4H117.238V25.72H148.378V33.4H135.358L137.458 31.24V58H128.158ZM167.14 58.48C163.7 58.48 160.64 57.76 157.96 56.32C155.32 54.88 153.22 52.92 151.66 50.44C150.14 47.92 149.38 45.06 149.38 41.86C149.38 38.62 150.14 35.76 151.66 33.28C153.22 30.76 155.32 28.8 157.96 27.4C160.64 25.96 163.7 25.24 167.14 25.24C170.54 25.24 173.58 25.96 176.26 27.4C178.94 28.8 181.04 30.74 182.56 33.22C184.08 35.7 184.84 38.58 184.84 41.86C184.84 45.06 184.08 47.92 182.56 50.44C181.04 52.92 178.94 54.88 176.26 56.32C173.58 57.76 170.54 58.48 167.14 58.48ZM167.14 50.8C168.7 50.8 170.1 50.44 171.34 49.72C172.58 49 173.56 47.98 174.28 46.66C175 45.3 175.36 43.7 175.36 41.86C175.36 39.98 175 38.38 174.28 37.06C173.56 35.74 172.58 34.72 171.34 34C170.1 33.28 168.7 32.92 167.14 32.92C165.58 32.92 164.18 33.28 162.94 34C161.7 34.72 160.7 35.74 159.94 37.06C159.22 38.38 158.86 39.98 158.86 41.86C158.86 43.7 159.22 45.3 159.94 46.66C160.7 47.98 161.7 49 162.94 49.72C164.18 50.44 165.58 50.8 167.14 50.8ZM210.297 58.48C207.577 58.48 205.197 57.88 203.157 56.68C201.117 55.48 199.517 53.66 198.357 51.22C197.237 48.74 196.677 45.62 196.677 41.86C196.677 38.06 197.217 34.94 198.297 32.5C199.377 30.06 200.937 28.24 202.977 27.04C205.017 25.84 207.457 25.24 210.297 25.24C213.337 25.24 216.057 25.94 218.457 27.34C220.897 28.7 222.817 30.62 224.217 33.1C225.657 35.58 226.377 38.5 226.377 41.86C226.377 45.26 225.657 48.2 224.217 50.68C222.817 53.16 220.897 55.08 218.457 56.44C216.057 57.8 213.337 58.48 210.297 58.48ZM191.217 69.64V25.72H200.157V32.32L199.977 41.92L200.577 51.46V69.64H191.217ZM208.677 50.8C210.237 50.8 211.617 50.44 212.817 49.72C214.057 49 215.037 47.98 215.757 46.66C216.517 45.3 216.897 43.7 216.897 41.86C216.897 39.98 216.517 38.38 215.757 37.06C215.037 35.74 214.057 34.72 212.817 34C211.617 33.28 210.237 32.92 208.677 32.92C207.117 32.92 205.717 33.28 204.477 34C203.237 34.72 202.257 35.74 201.537 37.06C200.817 38.38 200.457 39.98 200.457 41.86C200.457 43.7 200.817 45.3 201.537 46.66C202.257 47.98 203.237 49 204.477 49.72C205.717 50.44 207.117 50.8 208.677 50.8Z" fill="white"/>
<g clip-path="url(#clip0_3796_1339)">
<path d="M11.7412 58H0V36.9629L11.7412 58ZM9.66016 46.9365V50.7998H10.9736L13.4219 58H12.8867L0 34.9111V18.5244L9.66016 46.9365ZM13.4482 50.7998L14.6943 58H14.4775L12.0303 50.7998H13.4482ZM16 50.7998V58H15.71L14.4639 50.7998H16ZM18.7031 50.7998L17.375 58H17V50.7998H18.7031ZM19.0068 58H18.3926L19.7207 50.7998H20.3398C20.9185 50.7998 21.4612 50.7697 21.9678 50.7109L19.0068 58ZM34.332 22.9316C34.8031 24.1027 35.04 25.4122 35.04 26.8604C35.04 30.3002 33.7601 32.9805 31.2002 34.9004C30.5721 35.3616 29.8923 35.7642 29.1631 36.1123C30.6792 36.5734 31.9985 37.2086 33.1201 38.0195C33.2451 38.1099 33.3664 38.2036 33.4854 38.2979L20.751 57.999C20.7341 57.999 20.7171 58 20.7002 58H20.085L23.1279 50.5088C24.0514 50.2897 24.8229 49.9489 25.4404 49.4805C26.6003 48.6005 27.1796 47.2402 27.1797 45.4004C27.1797 44.2171 26.9169 43.242 26.3926 42.4746L34.332 22.9316ZM34.2451 38.9648C36.0948 40.7723 37.0195 43.1771 37.0195 46.1797C37.0195 49.8596 35.6201 52.7599 32.8203 54.8799C30.282 56.7928 26.6606 57.8239 21.957 57.9775L34.2451 38.9648ZM9.66016 28.9102V33.4004H10.4375L11.6104 40.1797H9.66016V43.8291L0.198242 16H7.42578L9.66016 28.9102ZM26.0117 16.6914C27.9366 17.1614 29.5861 17.8707 30.96 18.8203C32.145 19.6394 33.0715 20.6105 33.7402 21.7334L25.6455 41.6592C25.5792 41.6046 25.5111 41.5512 25.4404 41.5C24.5218 40.8031 23.2639 40.3833 21.668 40.2383L23.1104 32.4219C23.2541 32.3336 23.3906 32.2399 23.5195 32.1396C24.5995 31.2596 25.1396 29.9798 25.1396 28.2998C25.1396 27.1607 24.8901 26.2158 24.3936 25.4629L26.0117 16.6914ZM20.6602 40.1836C20.5547 40.1815 20.4478 40.1797 20.3398 40.1797H17V33.4004H18.7197C20.0028 33.4004 21.095 33.2442 21.9971 32.9365L20.6602 40.1836ZM16 33.4004V40.1797H12.625L11.4512 33.4004H16ZM19.5596 16C21.5669 16 23.3914 16.1614 25.0332 16.4795L23.5459 24.541C23.5372 24.5341 23.5283 24.5264 23.5195 24.5195C22.4395 23.6398 20.8394 23.2002 18.7197 23.2002H17V16H19.5596ZM16 23.2002H9.68555L8.43945 16H16V23.2002Z" fill="white"/>
</g>
<defs>
<clipPath id="clip0_3796_1339">
<rect width="37" height="42" fill="white" transform="translate(0 16)"/>
</clipPath>
</defs>
</svg>
